<?xml version="1.0" standalone="no"?>
<!DOCTYPE svg PUBLIC "-//W3C//DTD SVG 20010904//EN"
 "http://www.w3.org/TR/2001/REC-SVG-20010904/DTD/svg10.dtd">
<svg version="1.0" xmlns="http://www.w3.org/2000/svg"
 width="416.000000pt" height="416.000000pt" viewBox="0 0 416.000000 416.000000"
 preserveAspectRatio="xMidYMid meet">
<metadata>
Created by potrace 1.14, written by Peter Selinger 2001-2017
</metadata>
<g transform="translate(0.000000,416.000000) scale(0.100000,-0.100000)"
fill="#000000" stroke="none">
<path d="M1210 3157 l0 -403 28 -27 28 -27 654 -2 654 -3 -65 -40 c-126 -78
-306 -222 -430 -345 -395 -391 -615 -823 -668 -1312 -12 -109 -14 -271 -5
-342 l7 -46 577 0 c317 0 579 2 582 5 2 3 -8 53 -24 112 -103 390 -115 721
-37 1018 33 126 57 193 120 324 138 288 300 478 536 625 l98 61 0 83 c0 45 -2
226 -3 402 l-2 320 -1025 0 -1025 0 0 -403z"/>
</g>
</svg>
